# xmcd
# 
# Track frame offsets:
#     182
#     13322
#     24630
#     37185
#     45637
#     58352
#     67682
#     79270
#     102495
#     111577
#     122927
#     135680
#     145452
#     153417
#     163687
#     174165
#     183040
#     196530
#     209662
#     219415
# 
# Disc length: 3063
# 
# Revision: 1
# Processed by: cddbd v1.5.2PL0 Copyright (c) Steve Scherf et al.
# Submitted via: BonkEnc v1.0.15
# 
DISCID=290bf514
DTITLE=Dick Rivers c - Dick$
DYEAR=1999
DGENRE=Chanson
TTITLE0=Rien que toi
TTITLE1=Quand je l'ai vue devant moi
TTITLE2=Ne lui dis rien
TTITLE3=Tout le monde sait tout
TTITLE4=Si jamais
TTITLE5=Oublie-le
TTITLE6=Amour et neige
TTITLE7=What'D I  Say
TTITLE8=Je croyais
TTITLE9=Maintenant tu veux partir
TTITLE10=La fille dont je rêvais
TTITLE11=Twist and shout
TTITLE12=Bientôt à moi
TTITLE13=Juliet
TTITLE14=Plus jamais
TTITLE15=Dis tu dois m'écouetr
TTITLE16=What'D I Say (version courte)
TTITLE17=Solo tu (Riens que toi en espagnol)
TTITLE18=E mai piu (Plus jamais version italienne)
TTITLE19=Never More (Plus jamais Version anglaise)
EXTD=
EXTT0=
EXTT1=
EXTT2=
EXTT3=
EXTT4=
EXTT5=
EXTT6=
EXTT7=
EXTT8=
EXTT9=
EXTT10=
EXTT11=
EXTT12=
EXTT13=
EXTT14=
EXTT15=
EXTT16=
EXTT17=
EXTT18=
EXTT19=
PLAYORDER=
